<svg width="24" height="25" viewBox="0 0 24 25" fill="none" xmlns="http://www.w3.org/2000/svg">
<g clip-path="url(#clip0_324_151)">
<path d="M24 12.4893C24 5.86184 18.6274 0.489258 12 0.489258C5.37258 0.489258 0 5.86184 0 12.4893C0 18.4787 4.3882 23.4432 10.125 24.3435V15.958H7.07812V12.4893H10.125V9.84551C10.125 6.83801 11.9166 5.17676 14.6576 5.17676C15.9701 5.17676 17.3438 5.41113 17.3438 5.41113V8.36426H15.8306C14.34 8.36426 13.875 9.28934 13.875 10.2393V12.4893H17.2031L16.6711 15.958H13.875V24.3435C19.6118 23.4432 24 18.4787 24 12.4893Z" fill="white"/>
</g>
<defs>
<clipPath id="clip0_324_151">
<rect width="24" height="24" fill="white" transform="translate(0 0.489258)"/>
</clipPath>
</defs>
</svg>
