<svg width="24" height="25" viewBox="0 0 24 25" fill="none" xmlns="http://www.w3.org/2000/svg">
<g clip-path="url(#clip0_324_155)">
<path d="M12 2.65019C15.2063 2.65019 15.5859 2.66426 16.8469 2.72051C18.0187 2.77207 18.6516 2.96895 19.0734 3.13301C19.6313 3.34863 20.0344 3.61113 20.4516 4.02832C20.8734 4.45019 21.1313 4.84863 21.3469 5.40644C21.5109 5.82832 21.7078 6.46582 21.7594 7.63301C21.8156 8.89863 21.8297 9.27832 21.8297 12.4799C21.8297 15.6861 21.8156 16.0658 21.7594 17.3268C21.7078 18.4986 21.5109 19.1314 21.3469 19.5533C21.1313 20.1111 20.8687 20.5143 20.4516 20.9314C20.0297 21.3533 19.6313 21.6111 19.0734 21.8268C18.6516 21.9908 18.0141 22.1877 16.8469 22.2393C15.5813 22.2955 15.2016 22.3096 12 22.3096C8.79375 22.3096 8.41406 22.2955 7.15313 22.2393C5.98125 22.1877 5.34844 21.9908 4.92656 21.8268C4.36875 21.6111 3.96562 21.3486 3.54844 20.9314C3.12656 20.5096 2.86875 20.1111 2.65312 19.5533C2.48906 19.1314 2.29219 18.4939 2.24062 17.3268C2.18438 16.0611 2.17031 15.6814 2.17031 12.4799C2.17031 9.27363 2.18438 8.89394 2.24062 7.63301C2.29219 6.46113 2.48906 5.82832 2.65312 5.40644C2.86875 4.84863 3.13125 4.44551 3.54844 4.02832C3.97031 3.60644 4.36875 3.34863 4.92656 3.13301C5.34844 2.96895 5.98594 2.77207 7.15313 2.72051C8.41406 2.66426 8.79375 2.65019 12 2.65019ZM12 0.489258C8.74219 0.489258 8.33438 0.50332 7.05469 0.55957C5.77969 0.61582 4.90312 0.82207 4.14375 1.11738C3.35156 1.42676 2.68125 1.83457 2.01562 2.50488C1.34531 3.17051 0.9375 3.84082 0.628125 4.62832C0.332812 5.39238 0.126563 6.26426 0.0703125 7.53926C0.0140625 8.82363 0 9.23144 0 12.4893C0 15.7471 0.0140625 16.1549 0.0703125 17.4346C0.126563 18.7096 0.332812 19.5861 0.628125 20.3455C0.9375 21.1377 1.34531 21.808 2.01562 22.4736C2.68125 23.1393 3.35156 23.5518 4.13906 23.8564C4.90313 24.1518 5.775 24.358 7.05 24.4143C8.32969 24.4705 8.7375 24.4846 11.9953 24.4846C15.2531 24.4846 15.6609 24.4705 16.9406 24.4143C18.2156 24.358 19.0922 24.1518 19.8516 23.8564C20.6391 23.5518 21.3094 23.1393 21.975 22.4736C22.6406 21.808 23.0531 21.1377 23.3578 20.3502C23.6531 19.5861 23.8594 18.7143 23.9156 17.4393C23.9719 16.1596 23.9859 15.7518 23.9859 12.4939C23.9859 9.23613 23.9719 8.82832 23.9156 7.54863C23.8594 6.27363 23.6531 5.39707 23.3578 4.63769C23.0625 3.84082 22.6547 3.17051 21.9844 2.50488C21.3188 1.83926 20.6484 1.42676 19.8609 1.12207C19.0969 0.826758 18.225 0.620508 16.95 0.564258C15.6656 0.50332 15.2578 0.489258 12 0.489258Z" fill="white"/>
<path d="M12 6.3252C8.59688 6.3252 5.83594 9.08613 5.83594 12.4893C5.83594 15.8924 8.59688 18.6533 12 18.6533C15.4031 18.6533 18.1641 15.8924 18.1641 12.4893C18.1641 9.08613 15.4031 6.3252 12 6.3252ZM12 16.4877C9.79219 16.4877 8.00156 14.6971 8.00156 12.4893C8.00156 10.2814 9.79219 8.49082 12 8.49082C14.2078 8.49082 15.9984 10.2814 15.9984 12.4893C15.9984 14.6971 14.2078 16.4877 12 16.4877Z" fill="white"/>
<path d="M19.8469 6.0814C19.8469 6.87827 19.2 7.52046 18.4078 7.52046C17.6109 7.52046 16.9688 6.87359 16.9688 6.0814C16.9688 5.28452 17.6156 4.64233 18.4078 4.64233C19.2 4.64233 19.8469 5.28921 19.8469 6.0814Z" fill="white"/>
</g>
<defs>
<clipPath id="clip0_324_155">
<rect width="24" height="24" fill="white" transform="translate(0 0.489258)"/>
</clipPath>
</defs>
</svg>
