<svg width="24" height="25" viewBox="0 0 24 25" fill="none" xmlns="http://www.w3.org/2000/svg">
<g clip-path="url(#clip0_324_159)">
<path d="M22.2234 0.489258H1.77187C0.792187 0.489258 0 1.2627 0 2.21895V22.7549C0 23.7111 0.792187 24.4893 1.77187 24.4893H22.2234C23.2031 24.4893 24 23.7111 24 22.7596V2.21895C24 1.2627 23.2031 0.489258 22.2234 0.489258ZM7.12031 20.9408H3.55781V9.48457H7.12031V20.9408ZM5.33906 7.92363C4.19531 7.92363 3.27188 7.0002 3.27188 5.86113C3.27188 4.72207 4.19531 3.79863 5.33906 3.79863C6.47813 3.79863 7.40156 4.72207 7.40156 5.86113C7.40156 6.99551 6.47813 7.92363 5.33906 7.92363ZM20.4516 20.9408H16.8937V15.3721C16.8937 14.0455 16.8703 12.3346 15.0422 12.3346C13.1906 12.3346 12.9094 13.783 12.9094 15.2783V20.9408H9.35625V9.48457H12.7687V11.0502H12.8156C13.2891 10.1502 14.4516 9.19863 16.1813 9.19863C19.7859 9.19863 20.4516 11.5705 20.4516 14.6549V20.9408Z" fill="white"/>
</g>
<defs>
<clipPath id="clip0_324_159">
<rect width="24" height="24" fill="white" transform="translate(0 0.489258)"/>
</clipPath>
</defs>
</svg>
