<svg width="47" height="62" viewBox="0 0 47 62" fill="none" xmlns="http://www.w3.org/2000/svg">
<path d="M42.8122 0L42.8026 31.94C42.8026 36.5277 41.7477 40.7857 39.6783 44.6002C38.0117 47.6682 35.6785 50.4686 32.7451 52.924C28.5881 56.403 24.364 58.219 22.962 58.7571C21.5686 58.2209 17.4001 56.4431 13.2335 52.989C10.2723 50.5317 7.91708 47.7322 6.23315 44.6527C4.13594 40.8296 3.06863 36.5478 3.06863 31.941V6.98768L0 7.52673V31.941C0 37.0658 1.19005 41.837 3.53564 46.1199C5.40558 49.5339 8.00624 52.6363 11.2657 55.3402C16.7816 59.9174 22.2457 61.763 22.4758 61.8394L22.961 62L23.4462 61.8385C23.6754 61.762 29.128 59.9164 34.6314 55.3392C37.8832 52.6344 40.481 49.5319 42.3442 46.1179C44.684 41.8361 45.8712 37.0658 45.8712 31.941L45.877 1.11634L42.8122 0Z" fill="#FF11AA"/>
<path d="M17.1298 15.4959V13.6035C17.1298 11.7876 16.1708 11.3631 15.4612 11.2399C16.0749 10.9216 16.8613 10.1331 16.8613 8.54648V7.45693C16.8613 5.44981 15.9982 4.72246 13.831 5.10381L8.92116 5.96401V20.1859L13.9077 19.3095C16.0749 18.93 17.1298 17.5594 17.1298 15.4959ZM11.8748 7.62612L12.8721 7.45122C13.6967 7.30593 13.9461 7.58789 13.9461 8.44707V9.42199C13.9461 10.2822 13.6392 10.719 12.8912 10.8499L11.8748 11.0286V7.62612ZM12.9488 17.2058L11.8748 17.397V13.2871L12.9296 13.1017C13.7543 12.9574 14.0612 13.2852 14.0612 14.1837V15.7511C14.0612 16.6429 13.7734 17.0596 12.9488 17.2048V17.2058Z" fill="white"/>
<path d="M27.0448 13.7526V11.864C27.0448 10.0481 26.0859 9.62372 25.3763 9.50041C25.99 9.18215 26.7763 8.39364 26.7763 6.80703V5.71745C26.7763 3.71033 25.9132 2.98299 23.7461 3.36338L18.8362 4.22358V18.4455L23.8228 17.569C25.99 17.1877 27.0448 15.8171 27.0448 13.7526ZM21.7898 5.8828L22.7871 5.70789C23.6118 5.56261 23.8611 5.84361 23.8611 6.70381V7.67871C23.8611 8.53886 23.5543 8.97569 22.8063 9.10664L21.7898 9.28341V5.8828ZM22.8638 15.4616L21.7898 15.6527V11.5429L22.8446 11.3575C23.6693 11.2122 23.9762 11.541 23.9762 12.4394V14.0068C23.9762 14.9034 23.6885 15.3173 22.8638 15.4616Z" fill="white"/>
<path d="M31.8014 10.221L33.9303 9.84732V15.7922L36.9797 15.2561V1.03415L33.9303 1.57034V6.94179L31.8014 7.31551V1.94405L28.752 2.48023V16.7021L31.8014 16.1659V10.221Z" fill="white"/>
<path d="M9.3458 28.3033L9.33731 28.3212V28.3156L9.3458 28.3033Z" fill="white"/>
<path d="M8.65643 30.5972C8.66383 30.5981 8.67136 30.5965 8.67779 30.5928C8.68422 30.589 8.68919 30.5831 8.69189 30.5762C8.81941 30.2483 9.02179 30.0285 9.27497 29.9482C10.1447 29.6615 11.3712 31.0952 12.0281 33.1348C12.685 35.1744 12.5267 37.0477 11.6579 37.3306C11.3884 37.4157 11.072 37.3392 10.7594 37.1194C10.7535 37.1161 10.7468 37.115 10.7402 37.1162C10.7336 37.1174 10.7277 37.1208 10.7234 37.1259C10.719 37.131 10.7167 37.1374 10.7166 37.1441C10.7165 37.1507 10.7188 37.1572 10.7229 37.1624C11.2813 37.7434 11.9287 38.2325 12.6409 38.6114C13.4588 39.0453 14.2442 38.5702 14.7045 37.7445C15.3335 36.564 15.3691 34.4738 14.6642 32.2965C13.9594 30.1193 12.7109 28.4295 11.5093 27.8417C11.1792 27.6675 10.805 27.594 10.4334 27.6305C9.95384 27.7127 9.57031 27.8752 9.34208 28.3215C8.99324 29.0283 8.75368 29.7836 8.63148 30.5618C8.63058 30.5698 8.63259 30.5777 8.63722 30.5842C8.64178 30.5908 8.64862 30.5954 8.65643 30.5972Z" fill="white"/>
<path d="M13.661 24.4401C12.5386 24.8485 11.5256 25.5091 10.7007 26.3708C10.698 26.3735 10.6957 26.3767 10.6942 26.3804C10.6928 26.384 10.6919 26.3878 10.6919 26.3918C10.6919 26.3957 10.6928 26.3995 10.6942 26.4031C10.6957 26.4068 10.698 26.41 10.7007 26.4128C10.7058 26.4172 10.7123 26.4196 10.719 26.4196C10.7257 26.4196 10.7322 26.4172 10.7372 26.4128C13.1499 24.3684 16.1945 26.9949 17.6014 31.3494C17.7668 31.8301 17.9004 32.3212 18.0012 32.8193C18.6015 35.7134 18.1412 37.7416 17.5515 39.4438C16.9982 41.0772 16.9982 42.8464 17.5515 44.4798C17.5528 44.4834 17.5548 44.4867 17.5573 44.4895C17.5599 44.4923 17.5631 44.4946 17.5665 44.4962C17.57 44.4978 17.5738 44.4987 17.5776 44.4989C17.5814 44.499 17.5853 44.4983 17.5888 44.4969C17.5953 44.4948 17.6007 44.4902 17.604 44.4841C17.6072 44.4781 17.6079 44.471 17.6061 44.4645C17.519 44.0564 17.4913 43.638 17.5237 43.2219C17.6569 41.5255 18.4241 40.2954 19.1779 39.0099C20.3631 37.0009 21.5138 34.8465 20.1234 30.5398C18.8355 26.5466 15.8877 23.7242 13.661 24.4401Z" fill="white"/>
<path d="M17.8594 24.1706C18.2559 24.2992 18.632 24.4833 18.9767 24.7173C20.3844 25.6807 21.0691 26.9585 21.8094 28.2536C22.9697 30.2808 24.2662 32.3462 28.7023 33.301C32.8162 34.187 36.7421 33.0535 37.2369 30.774C37.4425 29.5934 37.3734 28.3815 37.0345 27.2319C37.0334 27.2282 37.0314 27.2248 37.0289 27.2219C37.0264 27.2189 37.0233 27.2166 37.0198 27.2148C37.0162 27.2131 37.0124 27.2121 37.0086 27.2119C37.0047 27.2118 37.0008 27.2124 36.9972 27.2137C36.991 27.2161 36.9859 27.2206 36.9827 27.2263C36.9795 27.2321 36.9786 27.2388 36.9799 27.2453C37.5553 30.3544 33.7492 31.6868 29.2623 30.7233C28.762 30.6257 28.2687 30.4955 27.7855 30.3334C24.9662 29.4025 23.4319 27.9907 22.2515 26.6307C21.1069 25.3366 19.5675 24.4531 17.87 24.1161C17.8662 24.1152 17.8623 24.1152 17.8585 24.116C17.8547 24.1168 17.8511 24.1183 17.8479 24.1206C17.8447 24.1228 17.8421 24.1257 17.8402 24.1291C17.8382 24.1324 17.8369 24.1361 17.8364 24.14C17.8356 24.147 17.8375 24.1542 17.8418 24.1598C17.8461 24.1655 17.8525 24.1694 17.8594 24.1706Z" fill="white"/>
<path d="M25.1639 25.0202C25.8754 26.1528 27.6735 27.229 29.9193 27.7098C32.1651 28.1905 34.2557 27.9573 35.3671 27.2137C35.6842 27.0168 35.9358 26.7309 36.0901 26.3918C36.2579 25.9368 36.3097 25.522 36.0345 25.1044C35.595 24.4497 35.0587 23.8652 34.4436 23.3706C34.4368 23.3653 34.4282 23.3629 34.4196 23.3638C34.411 23.3646 34.4032 23.3688 34.3976 23.3753C34.3927 23.381 34.39 23.3883 34.39 23.3959C34.39 23.4034 34.3927 23.4107 34.3976 23.4164C34.6181 23.6908 34.7082 23.9755 34.6517 24.2346C34.4599 25.1263 32.6101 25.4713 30.5062 25.0173C28.4022 24.5634 26.8564 23.4882 27.0463 22.5993C27.1057 22.324 27.334 22.0898 27.6782 21.9302C27.6842 21.9275 27.6891 21.9227 27.6919 21.9168C27.6947 21.9108 27.6953 21.9041 27.6936 21.8977C27.6918 21.8904 27.6871 21.8841 27.6806 21.8801C27.6742 21.8762 27.6664 21.875 27.6591 21.8767C26.8772 22.0687 26.1303 22.3819 25.4458 22.8048C24.6556 23.2941 24.6787 24.2097 25.1639 25.0202Z" fill="white"/>
<path d="M35.4093 34.5694C35.412 34.5667 35.4142 34.5635 35.4157 34.5599C35.4172 34.5564 35.418 34.5526 35.418 34.5488C35.418 34.545 35.4172 34.5412 35.4157 34.5377C35.4142 34.5341 35.412 34.5309 35.4093 34.5282C35.4042 34.5239 35.3977 34.5215 35.391 34.5215C35.3843 34.5215 35.3779 34.5239 35.3728 34.5282C35.063 34.8062 34.7149 35.0386 34.339 35.2183C32.7981 35.9524 31.3452 35.9046 29.8521 35.8969C27.5104 35.8855 25.067 35.9715 22.0195 39.3224C19.1935 42.4305 18.2144 46.3865 19.9501 47.9501C20.866 48.715 21.9467 49.259 23.1079 49.5396C23.1117 49.5406 23.1156 49.5408 23.1195 49.5401C23.1234 49.5395 23.127 49.538 23.1303 49.5358C23.1335 49.5337 23.1363 49.5309 23.1384 49.5275C23.1405 49.5242 23.1418 49.5205 23.1424 49.5167C23.1433 49.5101 23.142 49.5035 23.1387 49.4978C23.1354 49.4921 23.1303 49.4876 23.1242 49.4851C20.1409 48.4252 20.9004 44.4836 23.9805 41.0925C24.3159 40.7096 24.6759 40.3488 25.0584 40.0125C27.2726 38.0465 29.2652 37.4319 31.0393 37.0888C32.7334 36.7482 34.2685 35.8632 35.4093 34.5694Z" fill="white"/>
<path d="M32.4306 44.149C32.4378 44.1511 32.4456 44.1503 32.4522 44.1467C32.4588 44.1432 32.4638 44.1371 32.466 44.1299C32.6913 43.358 32.7925 42.5554 32.7662 41.752C32.7336 40.8278 31.929 40.3881 30.9806 40.4033C29.6381 40.4511 27.8065 41.4653 26.2655 43.1636C24.7244 44.862 23.8825 46.7822 23.9726 48.1136C23.986 48.4858 24.1091 48.8458 24.3265 49.1487C24.6382 49.5205 24.9728 49.7737 25.4772 49.7441C26.2656 49.6924 27.0415 49.5219 27.7787 49.2385C27.7867 49.2353 27.7932 49.2292 27.7967 49.2213C27.8003 49.2135 27.8007 49.2046 27.7979 49.1965C27.795 49.1894 27.7899 49.1836 27.7832 49.1798C27.7767 49.176 27.769 49.1745 27.7615 49.1754C27.4133 49.2299 27.1209 49.165 26.9243 48.9843C26.2444 48.3755 26.8696 46.6035 28.3167 45.015C29.7637 43.4265 31.4668 42.6256 32.1524 43.2372C32.3615 43.4284 32.4526 43.738 32.418 44.1175C32.4164 44.1234 32.4167 44.1297 32.4189 44.1354C32.4212 44.1411 32.4252 44.1459 32.4306 44.149Z" fill="white"/>
</svg>
