<svg width="24" height="25" viewBox="0 0 24 25" fill="none" xmlns="http://www.w3.org/2000/svg">
<g clip-path="url(#clip0_324_161)">
<path d="M17.0725 0.489258H13.0278V16.8371C13.0278 18.7849 11.4722 20.3849 9.53626 20.3849C7.60034 20.3849 6.04469 18.7849 6.04469 16.8371C6.04469 14.9241 7.56577 13.3588 9.43257 13.2893V9.18493C5.31872 9.25446 2 12.6284 2 16.8371C2 21.0806 5.38786 24.4893 9.57085 24.4893C13.7538 24.4893 17.1416 21.0458 17.1416 16.8371V8.45446C18.6627 9.56752 20.5295 10.2284 22.5 10.2632V6.15882C19.4579 6.05448 17.0725 3.55012 17.0725 0.489258Z" fill="white"/>
</g>
<defs>
<clipPath id="clip0_324_161">
<rect width="24" height="24" fill="white" transform="translate(0 0.489258)"/>
</clipPath>
</defs>
</svg>
