<svg width="24" height="25" viewBox="0 0 24 25" fill="none" xmlns="http://www.w3.org/2000/svg">
<path d="M23.7609 7.68931C23.7609 7.68931 23.5266 6.03462 22.8047 5.30806C21.8906 4.35181 20.8688 4.34712 20.4 4.29087C17.0438 4.04712 12.0047 4.04712 12.0047 4.04712H11.9953C11.9953 4.04712 6.95625 4.04712 3.6 4.29087C3.13125 4.34712 2.10938 4.35181 1.19531 5.30806C0.473438 6.03462 0.24375 7.68931 0.24375 7.68931C0.24375 7.68931 0 9.63462 0 11.5752V13.394C0 15.3346 0.239062 17.2799 0.239062 17.2799C0.239062 17.2799 0.473437 18.9346 1.19062 19.6612C2.10469 20.6174 3.30469 20.5846 3.83906 20.6877C5.76094 20.8706 12 20.9268 12 20.9268C12 20.9268 17.0438 20.9174 20.4 20.6784C20.8688 20.6221 21.8906 20.6174 22.8047 19.6612C23.5266 18.9346 23.7609 17.2799 23.7609 17.2799C23.7609 17.2799 24 15.3393 24 13.394V11.5752C24 9.63462 23.7609 7.68931 23.7609 7.68931ZM9.52031 15.6018V8.85649L16.0031 12.2409L9.52031 15.6018Z" fill="white"/>
</svg>
